<svg xmlns="http://www.w3.org/2000/svg" xmlns:xlink="http://www.w3.org/1999/xlink" width="500" zoomAndPan="magnify" viewBox="0 0 375 374.999991" height="500" preserveAspectRatio="xMidYMid meet" version="1.0"><defs><g/><clipPath id="ded100ce35"><path d="M 26.140625 85.308594 L 258 85.308594 L 258 269.808594 L 26.140625 269.808594 Z M 26.140625 85.308594 " clip-rule="nonzero"/></clipPath><clipPath id="7bcea015e0"><path d="M 280 117 L 348.640625 117 L 348.640625 238 L 280 238 Z M 280 117 " clip-rule="nonzero"/></clipPath></defs><g clip-path="url(#ded100ce35)"><path fill="#ff3131" d="M 71.816406 269.65625 L 211.863281 269.65625 C 213.347656 269.65625 214.824219 269.582031 216.300781 269.4375 C 217.777344 269.292969 219.242188 269.074219 220.695312 268.785156 C 222.152344 268.496094 223.589844 268.136719 225.007812 267.707031 C 226.425781 267.277344 227.820312 266.777344 229.191406 266.210938 C 230.5625 265.640625 231.902344 265.007812 233.207031 264.308594 C 234.515625 263.609375 235.785156 262.847656 237.019531 262.023438 C 238.253906 261.203125 239.441406 260.320312 240.589844 259.378906 C 241.734375 258.4375 242.832031 257.441406 243.882812 256.394531 C 244.929688 255.34375 245.925781 254.246094 246.867188 253.101562 C 247.804688 251.953125 248.6875 250.765625 249.511719 249.53125 C 250.335938 248.300781 251.097656 247.027344 251.796875 245.722656 C 252.496094 244.414062 253.128906 243.074219 253.695312 241.703125 C 254.265625 240.332031 254.761719 238.9375 255.195312 237.519531 C 255.625 236.101562 255.984375 234.664062 256.273438 233.210938 C 256.5625 231.753906 256.78125 230.289062 256.925781 228.8125 C 257.070312 227.339844 257.144531 225.859375 257.144531 224.375 L 257.144531 130.878906 C 257.144531 129.394531 257.070312 127.914062 256.925781 126.4375 C 256.78125 124.964844 256.5625 123.496094 256.273438 122.042969 C 255.984375 120.589844 255.625 119.152344 255.195312 117.734375 C 254.761719 116.3125 254.265625 114.917969 253.695312 113.550781 C 253.128906 112.179688 252.496094 110.839844 251.796875 109.53125 C 251.097656 108.222656 250.335938 106.953125 249.511719 105.71875 C 248.6875 104.488281 247.804688 103.296875 246.867188 102.152344 C 245.925781 101.003906 244.929688 99.90625 243.882812 98.859375 C 242.832031 97.808594 241.734375 96.816406 240.589844 95.875 C 239.441406 94.933594 238.253906 94.050781 237.019531 93.226562 C 235.785156 92.402344 234.515625 91.640625 233.207031 90.941406 C 231.902344 90.246094 230.5625 89.609375 229.191406 89.042969 C 227.820312 88.476562 226.425781 87.976562 225.007812 87.546875 C 223.589844 87.117188 222.152344 86.757812 220.695312 86.464844 C 219.242188 86.175781 217.777344 85.960938 216.300781 85.816406 C 214.824219 85.667969 213.347656 85.597656 211.863281 85.597656 L 71.816406 85.597656 C 70.320312 85.597656 68.824219 85.671875 67.332031 85.816406 C 65.84375 85.964844 64.363281 86.183594 62.894531 86.476562 C 61.425781 86.769531 59.972656 87.136719 58.542969 87.570312 C 57.109375 88.007812 55.699219 88.511719 54.316406 89.085938 C 52.933594 89.660156 51.582031 90.300781 50.261719 91.007812 C 48.941406 91.71875 47.660156 92.488281 46.414062 93.320312 C 45.171875 94.15625 43.96875 95.050781 42.8125 96 C 41.65625 96.953125 40.550781 97.960938 39.492188 99.019531 C 38.4375 100.082031 37.433594 101.191406 36.484375 102.351562 C 35.539062 103.511719 34.648438 104.714844 33.820312 105.964844 C 32.992188 107.210938 32.226562 108.496094 31.523438 109.820312 C 30.820312 111.140625 30.183594 112.496094 29.613281 113.882812 C 29.042969 115.269531 28.546875 116.679688 28.113281 118.113281 C 27.683594 119.546875 27.324219 121 27.039062 122.46875 C 26.75 123.941406 26.535156 125.421875 26.394531 126.910156 C 26.253906 128.402344 26.183594 129.898438 26.191406 131.394531 L 26.191406 223.570312 C 26.175781 225.074219 26.234375 226.574219 26.367188 228.074219 C 26.5 229.570312 26.707031 231.058594 26.988281 232.535156 C 27.269531 234.011719 27.621094 235.472656 28.046875 236.917969 C 28.472656 238.359375 28.964844 239.777344 29.53125 241.171875 C 30.09375 242.566406 30.726562 243.925781 31.429688 245.257812 C 32.128906 246.589844 32.890625 247.882812 33.71875 249.140625 C 34.546875 250.394531 35.433594 251.605469 36.382812 252.773438 C 37.328125 253.941406 38.332031 255.0625 39.390625 256.128906 C 40.449219 257.199219 41.554688 258.214844 42.714844 259.171875 C 43.875 260.132812 45.078125 261.03125 46.324219 261.871094 C 47.570312 262.710938 48.855469 263.488281 50.179688 264.203125 C 51.503906 264.914062 52.859375 265.5625 54.25 266.140625 C 55.636719 266.71875 57.050781 267.226562 58.488281 267.667969 C 59.925781 268.105469 61.382812 268.472656 62.859375 268.769531 C 64.332031 269.0625 65.820312 269.285156 67.316406 269.433594 C 68.8125 269.582031 70.3125 269.65625 71.816406 269.65625 Z M 71.816406 269.65625 " fill-opacity="1" fill-rule="nonzero"/></g><g clip-path="url(#7bcea015e0)"><path fill="#ff3131" d="M 326.621094 119.355469 L 290.269531 138.019531 C 288.726562 138.808594 287.316406 139.792969 286.046875 140.972656 C 284.773438 142.152344 283.6875 143.480469 282.78125 144.960938 C 281.878906 146.4375 281.191406 148.011719 280.71875 149.679688 C 280.25 151.351562 280.015625 153.050781 280.015625 154.785156 L 280.015625 200.121094 C 280.015625 201.847656 280.246094 203.542969 280.714844 205.207031 C 281.183594 206.867188 281.863281 208.433594 282.765625 209.910156 C 283.664062 211.382812 284.746094 212.707031 286.011719 213.882812 C 287.277344 215.058594 288.675781 216.039062 290.210938 216.828125 L 326.621094 235.550781 C 327.195312 235.847656 327.789062 236.109375 328.398438 236.328125 C 329.007812 236.550781 329.628906 236.734375 330.261719 236.875 C 330.894531 237.015625 331.535156 237.117188 332.179688 237.179688 C 332.828125 237.238281 333.472656 237.257812 334.121094 237.234375 C 334.769531 237.210938 335.414062 237.148438 336.054688 237.042969 C 336.695312 236.9375 337.328125 236.792969 337.949219 236.605469 C 338.570312 236.421875 339.175781 236.195312 339.769531 235.933594 C 340.363281 235.667969 340.933594 235.367188 341.488281 235.03125 C 342.042969 234.695312 342.574219 234.324219 343.082031 233.917969 C 343.589844 233.515625 344.066406 233.078125 344.519531 232.613281 C 344.96875 232.144531 345.390625 231.652344 345.777344 231.132812 C 346.164062 230.613281 346.519531 230.070312 346.835938 229.507812 C 347.15625 228.941406 347.4375 228.359375 347.679688 227.757812 C 347.925781 227.15625 348.128906 226.542969 348.296875 225.914062 C 348.460938 225.289062 348.585938 224.652344 348.671875 224.007812 C 348.753906 223.367188 348.796875 222.71875 348.800781 222.070312 L 348.800781 132.894531 C 348.796875 132.246094 348.75 131.597656 348.667969 130.957031 C 348.582031 130.3125 348.457031 129.679688 348.289062 129.050781 C 348.121094 128.425781 347.917969 127.8125 347.671875 127.210938 C 347.429688 126.609375 347.148438 126.027344 346.828125 125.464844 C 346.507812 124.898438 346.15625 124.355469 345.769531 123.835938 C 345.382812 123.316406 344.960938 122.824219 344.511719 122.359375 C 344.0625 121.890625 343.582031 121.457031 343.074219 121.050781 C 342.570312 120.644531 342.039062 120.273438 341.488281 119.9375 C 340.933594 119.597656 340.359375 119.296875 339.769531 119.03125 C 339.175781 118.765625 338.570312 118.539062 337.949219 118.351562 C 337.328125 118.164062 336.699219 118.019531 336.058594 117.910156 C 335.421875 117.804688 334.777344 117.738281 334.128906 117.710938 C 333.480469 117.6875 332.835938 117.703125 332.1875 117.757812 C 331.542969 117.816406 330.902344 117.914062 330.269531 118.054688 C 329.636719 118.191406 329.015625 118.371094 328.402344 118.589844 C 327.792969 118.804688 327.199219 119.0625 326.621094 119.355469 Z M 326.621094 119.355469 " fill-opacity="1" fill-rule="nonzero"/></g><g fill="#000000" fill-opacity="1"><g transform="translate(134.812496, 304.366768)"><g><path d="M 12.46875 -15.4375 L 12.46875 -12.4375 L 8.375 -12.4375 L 8.375 0 L 4.625 0 L 4.625 -12.4375 L 0.53125 -12.4375 L 0.53125 -15.4375 Z M 12.46875 -15.4375 "/></g></g></g><g fill="#000000" fill-opacity="1"><g transform="translate(147.812182, 304.366768)"><g><path d="M 13.484375 -12.28125 L 13.484375 0 L 9.71875 0 L 9.71875 -1.671875 C 9.34375 -1.128906 8.828125 -0.691406 8.171875 -0.359375 C 7.515625 -0.0351562 6.789062 0.125 6 0.125 C 5.0625 0.125 4.234375 -0.0820312 3.515625 -0.5 C 2.796875 -0.914062 2.238281 -1.519531 1.84375 -2.3125 C 1.445312 -3.101562 1.25 -4.035156 1.25 -5.109375 L 1.25 -12.28125 L 5 -12.28125 L 5 -5.609375 C 5 -4.785156 5.207031 -4.144531 5.625 -3.6875 C 6.050781 -3.238281 6.625 -3.015625 7.34375 -3.015625 C 8.082031 -3.015625 8.660156 -3.238281 9.078125 -3.6875 C 9.503906 -4.144531 9.71875 -4.785156 9.71875 -5.609375 L 9.71875 -12.28125 Z M 13.484375 -12.28125 "/></g></g></g><g fill="#000000" fill-opacity="1"><g transform="translate(162.637544, 304.366768)"><g><path d="M 5.125 -10.53125 C 5.476562 -11.101562 5.984375 -11.566406 6.640625 -11.921875 C 7.304688 -12.273438 8.0625 -12.453125 8.90625 -12.453125 C 9.914062 -12.453125 10.832031 -12.191406 11.65625 -11.671875 C 12.476562 -11.160156 13.128906 -10.425781 13.609375 -9.46875 C 14.085938 -8.519531 14.328125 -7.414062 14.328125 -6.15625 C 14.328125 -4.894531 14.085938 -3.785156 13.609375 -2.828125 C 13.128906 -1.867188 12.476562 -1.128906 11.65625 -0.609375 C 10.832031 -0.0859375 9.914062 0.171875 8.90625 0.171875 C 8.039062 0.171875 7.285156 0 6.640625 -0.34375 C 5.992188 -0.6875 5.488281 -1.144531 5.125 -1.71875 L 5.125 0 L 1.359375 0 L 1.359375 -16.28125 L 5.125 -16.28125 Z M 10.5 -6.15625 C 10.5 -7.09375 10.238281 -7.828125 9.71875 -8.359375 C 9.195312 -8.898438 8.550781 -9.171875 7.78125 -9.171875 C 7.039062 -9.171875 6.410156 -8.898438 5.890625 -8.359375 C 5.367188 -7.816406 5.109375 -7.078125 5.109375 -6.140625 C 5.109375 -5.203125 5.367188 -4.460938 5.890625 -3.921875 C 6.410156 -3.378906 7.039062 -3.109375 7.78125 -3.109375 C 8.53125 -3.109375 9.171875 -3.378906 9.703125 -3.921875 C 10.234375 -4.472656 10.5 -5.21875 10.5 -6.15625 Z M 10.5 -6.15625 "/></g></g></g><g fill="#000000" fill-opacity="1"><g transform="translate(177.572884, 304.366768)"><g><path d="M 12.9375 -6.34375 C 12.9375 -5.988281 12.914062 -5.617188 12.875 -5.234375 L 4.359375 -5.234375 C 4.410156 -4.472656 4.648438 -3.890625 5.078125 -3.484375 C 5.515625 -3.078125 6.050781 -2.875 6.6875 -2.875 C 7.625 -2.875 8.273438 -3.269531 8.640625 -4.0625 L 12.65625 -4.0625 C 12.445312 -3.257812 12.070312 -2.535156 11.53125 -1.890625 C 11 -1.242188 10.328125 -0.738281 9.515625 -0.375 C 8.710938 -0.0078125 7.8125 0.171875 6.8125 0.171875 C 5.613281 0.171875 4.546875 -0.0820312 3.609375 -0.59375 C 2.671875 -1.101562 1.9375 -1.832031 1.40625 -2.78125 C 0.875 -3.738281 0.609375 -4.859375 0.609375 -6.140625 C 0.609375 -7.410156 0.867188 -8.519531 1.390625 -9.46875 C 1.910156 -10.425781 2.640625 -11.160156 3.578125 -11.671875 C 4.523438 -12.191406 5.601562 -12.453125 6.8125 -12.453125 C 8.007812 -12.453125 9.066406 -12.203125 9.984375 -11.703125 C 10.910156 -11.203125 11.632812 -10.488281 12.15625 -9.5625 C 12.675781 -8.644531 12.9375 -7.570312 12.9375 -6.34375 Z M 9.09375 -7.328125 C 9.09375 -7.972656 8.867188 -8.484375 8.421875 -8.859375 C 7.984375 -9.242188 7.4375 -9.4375 6.78125 -9.4375 C 6.144531 -9.4375 5.609375 -9.253906 5.171875 -8.890625 C 4.742188 -8.523438 4.476562 -8.003906 4.375 -7.328125 Z M 9.09375 -7.328125 "/></g></g></g><g fill="#000000" fill-opacity="1"><g transform="translate(191.12247, 304.366768)"><g><path d="M 13.140625 -10.46875 C 13.140625 -9.570312 12.929688 -8.753906 12.515625 -8.015625 C 12.109375 -7.273438 11.476562 -6.675781 10.625 -6.21875 C 9.769531 -5.769531 8.710938 -5.546875 7.453125 -5.546875 L 5.125 -5.546875 L 5.125 0 L 1.359375 0 L 1.359375 -15.4375 L 7.453125 -15.4375 C 8.691406 -15.4375 9.734375 -15.222656 10.578125 -14.796875 C 11.429688 -14.378906 12.070312 -13.796875 12.5 -13.046875 C 12.925781 -12.296875 13.140625 -11.4375 13.140625 -10.46875 Z M 7.171875 -8.53125 C 7.890625 -8.53125 8.425781 -8.695312 8.78125 -9.03125 C 9.132812 -9.375 9.3125 -9.851562 9.3125 -10.46875 C 9.3125 -11.082031 9.132812 -11.554688 8.78125 -11.890625 C 8.425781 -12.234375 7.890625 -12.40625 7.171875 -12.40625 L 5.125 -12.40625 L 5.125 -8.53125 Z M 7.171875 -8.53125 "/></g></g></g><g fill="#000000" fill-opacity="1"><g transform="translate(204.848021, 304.366768)"><g><path d="M 5.125 -16.28125 L 5.125 0 L 1.359375 0 L 1.359375 -16.28125 Z M 5.125 -16.28125 "/></g></g></g><g fill="#000000" fill-opacity="1"><g transform="translate(211.336866, 304.366768)"><g><path d="M 0.609375 -6.15625 C 0.609375 -7.414062 0.847656 -8.519531 1.328125 -9.46875 C 1.804688 -10.425781 2.457031 -11.160156 3.28125 -11.671875 C 4.101562 -12.191406 5.019531 -12.453125 6.03125 -12.453125 C 6.894531 -12.453125 7.648438 -12.273438 8.296875 -11.921875 C 8.953125 -11.566406 9.457031 -11.101562 9.8125 -10.53125 L 9.8125 -12.28125 L 13.578125 -12.28125 L 13.578125 0 L 9.8125 0 L 9.8125 -1.734375 C 9.445312 -1.160156 8.9375 -0.695312 8.28125 -0.34375 C 7.625 0 6.863281 0.171875 6 0.171875 C 5.007812 0.171875 4.101562 -0.0859375 3.28125 -0.609375 C 2.457031 -1.128906 1.804688 -1.867188 1.328125 -2.828125 C 0.847656 -3.785156 0.609375 -4.894531 0.609375 -6.15625 Z M 9.8125 -6.140625 C 9.8125 -7.078125 9.550781 -7.816406 9.03125 -8.359375 C 8.507812 -8.898438 7.875 -9.171875 7.125 -9.171875 C 6.375 -9.171875 5.738281 -8.898438 5.21875 -8.359375 C 4.695312 -7.828125 4.4375 -7.09375 4.4375 -6.15625 C 4.4375 -5.21875 4.695312 -4.472656 5.21875 -3.921875 C 5.738281 -3.378906 6.375 -3.109375 7.125 -3.109375 C 7.875 -3.109375 8.507812 -3.378906 9.03125 -3.921875 C 9.550781 -4.460938 9.8125 -5.203125 9.8125 -6.140625 Z M 9.8125 -6.140625 "/></g></g></g><g fill="#000000" fill-opacity="1"><g transform="translate(226.272206, 304.366768)"><g><path d="M 13.90625 -12.28125 L 6.203125 5.828125 L 2.15625 5.828125 L 4.96875 -0.421875 L -0.015625 -12.28125 L 4.1875 -12.28125 L 7.015625 -4.59375 L 9.828125 -12.28125 Z M 13.90625 -12.28125 "/></g></g></g></svg>